<svg width="50" height="50" viewBox="0 0 50 50" fill="none" xmlns="http://www.w3.org/2000/svg">
<rect width="50" height="50" fill="white"/>
<path d="M31.0161 25.004H36.3441V35.228C34.9761 36.26 33.3921 37.052 31.5921 37.604C29.7921 38.156 27.9801 38.432 26.1561 38.432C23.5401 38.432 21.1881 37.88 19.1001 36.776C17.0121 35.648 15.3681 34.1 14.1681 32.132C12.9921 30.14 12.4041 27.896 12.4041 25.4C12.4041 22.904 12.9921 20.672 14.1681 18.704C15.3681 16.712 17.0241 15.164 19.1361 14.06C21.2481 12.932 23.6241 12.368 26.2641 12.368C28.4721 12.368 30.4761 12.74 32.2761 13.484C34.0761 14.228 35.5881 15.308 36.8121 16.724L33.0681 20.18C31.2681 18.284 29.0961 17.336 26.5521 17.336C24.9441 17.336 23.5161 17.672 22.2681 18.344C21.0201 19.016 20.0481 19.964 19.3521 21.188C18.6561 22.412 18.3081 23.816 18.3081 25.4C18.3081 26.96 18.6561 28.352 19.3521 29.576C20.0481 30.8 21.0081 31.76 22.2321 32.456C23.4801 33.128 24.8961 33.464 26.4801 33.464C28.1601 33.464 29.6721 33.104 31.0161 32.384V25.004Z" fill="#333333"/>
</svg>
