<svg width="50" height="50" viewBox="0 0 50 50" fill="none" xmlns="http://www.w3.org/2000/svg">
<rect width="50" height="50" fill="white"/>
<path d="M24.5 27.0625C28.3818 27.0625 31.5312 23.9131 31.5312 20.0312C31.5312 16.1494 28.3818 13 24.5 13C20.6182 13 17.4688 16.1494 17.4688 20.0312C17.4688 23.9131 20.6182 27.0625 24.5 27.0625ZM30.75 28.625H28.0596C26.9756 29.123 25.7695 29.4062 24.5 29.4062C23.2305 29.4062 22.0293 29.123 20.9404 28.625H18.25C14.7979 28.625 12 31.4229 12 34.875V35.6562C12 36.9502 13.0498 38 14.3438 38H34.6562C35.9502 38 37 36.9502 37 35.6562V34.875C37 31.4229 34.2021 28.625 30.75 28.625Z" fill="black"/>
</svg>
